<?xml version="1.0" encoding="UTF-8" standalone="no"?>
<svg width="15px" height="16px" viewBox="0 0 15 16" version="1.1" xmlns="http://www.w3.org/2000/svg" xmlns:xlink="http://www.w3.org/1999/xlink">
    <!-- Generator: Sketch 43.1 (39012) - http://www.bohemiancoding.com/sketch -->
    <title>Back</title>
    <desc>Created with Sketch.</desc>
    <defs></defs>
    <g id="Icons" stroke="none" stroke-width="1" fill="none" fill-rule="evenodd">
        <g id="Artboard" transform="translate(-85.000000, -44.000000)" fill="#999B9A">
            <g id="Back" transform="translate(85.000000, 44.000000)">
                <path d="M14.789904,5.92088389 L8.16708968,0.398926403 C7.79190405,0.0871944099 7.20463845,0.0886849317 6.83200799,0.399352266 L0.209619536,5.92045803 C-0.00416387983,6.09868185 -0.135968595,6.34951538 -0.161307466,6.62653951 C-0.186646337,6.90420243 -0.102751252,7.17441275 0.0756855035,7.38819616 C0.274563701,7.62667965 0.566493047,7.76359473 0.876734517,7.76359473 C1.12011544,7.76359473 1.35668254,7.67778326 1.5438495,7.52170433 L6.46214565,3.42170466 L6.45043441,14.1230126 C6.45043441,14.6968635 6.9173936,15.1648873 7.4918833,15.165739 L7.49358675,15.165739 C8.06701179,15.165739 8.53460978,14.6992057 8.53546151,14.1249289 L8.54717275,3.42958313 L13.4567387,7.52213019 C13.6439057,7.67757033 13.8804728,7.76295593 14.123002,7.76295593 C14.4332434,7.76295593 14.7251728,7.62646672 14.9236251,7.38819616 C15.101636,7.17462568 15.1863828,6.90441536 15.1614698,6.62696537 C15.1354921,6.34972831 15.0036874,6.09889478 14.789904,5.92088389 L14.789904,5.92088389 Z" id="back" transform="translate(7.500000, 7.665739) scale(-1, 1) rotate(90.000000) translate(-7.500000, -7.665739) "></path>
            </g>
        </g>
    </g>
</svg>